<svg width="101" height="39" viewBox="0 0 101 39" fill="none" xmlns="http://www.w3.org/2000/svg">
<path d="M40.625 2.88836L46.2542 14.8776L51.768 3.13444C52.2728 1.32663 53.9369 0 55.912 0H66.6643C69.0396 0 70.9652 1.91878 70.9652 4.28571V34.2857C70.9652 36.6526 69.0396 38.5714 66.6643 38.5714C64.289 38.5714 62.3633 36.6526 62.3633 34.2857V8.57143H58.7119L50.4726 26.1196C49.6937 27.7785 47.9846 28.7075 46.2545 28.5782C44.5241 28.7077 42.8149 27.7786 42.036 26.1196L33.7966 8.57143H30.1064V34.2857C30.1064 36.6526 28.1808 38.5714 25.8055 38.5714C23.4302 38.5714 21.5046 36.6526 21.5046 34.2857V4.28571C21.5046 1.91878 23.4302 0 25.8055 0H36.5578C38.4421 0 40.0435 1.20752 40.625 2.88836Z" fill="white"/>
<path d="M0 4.28571C0 1.91878 1.92562 0 4.30092 0H15.0532C17.4285 0 19.3541 1.91878 19.3541 4.28571C19.3541 6.65265 17.4285 8.57143 15.0532 8.57143H4.30092C1.92562 8.57143 0 6.65265 0 4.28571Z" fill="white"/>
<path d="M73.1156 20.3571C73.1156 17.9902 75.0413 16.0714 77.4166 16.0714H81.3859L76.1676 6.31004C75.0508 4.22104 75.8449 1.62542 77.9415 0.512565C80.0378 -0.600259 82.6427 0.191116 83.7594 2.28012L99.7798 32.2475C100.897 34.3365 100.102 36.9321 98.0061 38.045C95.9097 39.1578 93.3048 38.3665 92.188 36.2774L85.9681 24.6429H77.4166C75.0413 24.6429 73.1156 22.7241 73.1156 20.3571Z" fill="white"/>
</svg>
