<svg width="32" height="32" viewBox="0 0 32 32" fill="none" xmlns="http://www.w3.org/2000/svg">
<g clip-path="url(#clip0_897_37576)">
<path d="M5.85681 21.6829C3.5308 17.5931 2.21441 12.9581 2.02204 8.20167C2.00178 7.70109 2.279 7.23849 2.72213 7.00475L15.3781 0.329115C15.7673 0.123775 16.2329 0.123775 16.6221 0.329115L29.2781 7.00475C29.7212 7.23849 29.9984 7.70109 29.9781 8.20167C29.7858 12.9581 28.4694 17.5931 26.1434 21.6829C23.8158 25.7753 20.556 29.1835 16.6649 31.6011C16.2576 31.8542 15.7426 31.8542 15.3353 31.6011C11.4443 29.1835 8.18432 25.7753 5.85681 21.6829Z" fill="#1890FF"/>
<path d="M11 17.001L15 20.001L23 12.001" stroke="white" stroke-width="2" stroke-linecap="round" stroke-linejoin="round"/>
</g>
<defs>
<clipPath id="clip0_897_37576">
<rect width="32" height="32" fill="white" transform="translate(0 0.000976562)"/>
</clipPath>
</defs>
</svg>
