<svg width="16" height="17" viewBox="0 0 16 17" fill="none" xmlns="http://www.w3.org/2000/svg">
<g clip-path="url(#clip0_910_38523)">
<rect y="0.5" width="16" height="16" rx="8" fill="#D33238"/>
<path d="M9.44596 11.7462L8.06403 11.8693C8.06403 11.8693 8.73964 9.43854 9.23099 7.80778C9.2983 7.6233 9.32169 7.42561 9.29928 7.23047C9.27687 7.03532 9.20929 6.84812 9.10192 6.68377C8.99455 6.51942 8.85036 6.38246 8.68084 6.2838C8.51131 6.18514 8.32113 6.1275 8.12545 6.11549C7.96904 6.11476 7.81425 6.1473 7.67132 6.21095C7.52839 6.2746 7.40056 6.36791 7.29629 6.48472L6.0679 7.50009C6.03414 7.53183 6.0115 7.57363 6.00335 7.61929C5.99521 7.66495 6.00199 7.71202 6.02269 7.75351C6.0434 7.795 6.07691 7.82868 6.11826 7.84954C6.1596 7.87041 6.20657 7.87735 6.25216 7.86932L7.63409 7.74625L6.46713 11.8078C6.39982 11.9922 6.37643 12.1899 6.39884 12.3851C6.42125 12.5802 6.48883 12.7674 6.5962 12.9318C6.70357 13.0961 6.84776 13.2331 7.01728 13.3317C7.18681 13.4304 7.37699 13.488 7.57267 13.5C7.72909 13.5008 7.88387 13.4682 8.0268 13.4046C8.16973 13.3409 8.29756 13.2476 8.40183 13.1308L9.63022 12.1154C9.66398 12.0837 9.68662 12.0419 9.69477 11.9962C9.70291 11.9506 9.69613 11.9035 9.67543 11.862C9.65472 11.8205 9.62121 11.7869 9.57986 11.766C9.53852 11.7451 9.49155 11.7382 9.44596 11.7462Z" fill="white"/>
<path d="M9.07754 5.34614C9.58635 5.34614 9.99883 4.93287 9.99883 4.42307C9.99883 3.91327 9.58635 3.5 9.07754 3.5C8.56872 3.5 8.15625 3.91327 8.15625 4.42307C8.15625 4.93287 8.56872 5.34614 9.07754 5.34614Z" fill="white"/>
</g>
<defs>
<clipPath id="clip0_910_38523">
<rect y="0.5" width="16" height="16" rx="8" fill="white"/>
</clipPath>
</defs>
</svg>
