<svg width="48" height="49" viewBox="0 0 48 49" fill="none" xmlns="http://www.w3.org/2000/svg">
<path fill-rule="evenodd" clip-rule="evenodd" d="M33.1512 37.5C33.6044 37.5 33.9753 37.127 33.9753 36.6711L34 19.6693H26.9414C26.2492 19.6693 25.6805 19.0973 25.6805 18.401V11.5083L15.8241 11.5C15.3709 11.5 15 11.873 15 12.3289V36.6711C15 37.127 15.3709 37.5 15.8241 37.5H33.1512ZM27.5884 17.7503H33.9959V17.7337L27.5884 11.5124V17.7503ZM18.4338 28.8726H30.5998V30.2541H18.4338V28.8726ZM30.5998 32.382H18.4338V33.7635H30.5998V32.382ZM30.5998 25.3601H18.4338V26.7417H30.5998V25.3601ZM20.1507 22.6389C21.0989 22.6389 21.8676 21.8658 21.8676 20.912C21.8676 19.9581 21.0989 19.185 20.1507 19.185C19.2025 19.185 18.4338 19.9581 18.4338 20.912C18.4338 21.8658 19.2025 22.6389 20.1507 22.6389Z" fill="#EF383F"/>
<circle opacity="0.2" cx="24" cy="24.5" r="23.5" stroke="#EF383F"/>
</svg>
