<svg width="16" height="16" viewBox="0 0 16 16" fill="none" xmlns="http://www.w3.org/2000/svg">
<g clip-path="url(#clip0_897_37275)">
<path d="M14.9846 0.615356H9.10772C8.86157 0.615356 8.61541 0.769203 8.61541 1.01536V1.93843C8.61541 2.18459 8.8308 2.46151 9.10772 2.46151H11.5385C11.8154 2.46151 11.9693 2.7692 11.7539 2.95382L6.52311 8.18459C6.33849 8.3692 6.33849 8.64613 6.52311 8.83074L7.16926 9.4769C7.35387 9.66151 7.6308 9.66151 7.81541 9.4769L13.0462 4.24613C13.2308 4.06151 13.5385 4.18459 13.5385 4.46151V6.89228C13.5385 7.13843 13.7846 7.41536 14.0308 7.41536H14.9231C15.1693 7.41536 15.3846 7.13843 15.3846 6.89228V1.04613C15.3846 0.769203 15.2308 0.615356 14.9846 0.615356Z" fill="#0053B0"/>
<path d="M11.1692 7.84608L10.123 8.923C9.93843 9.10762 9.84612 9.323 9.84612 9.56916V13.0768C9.84612 13.323 9.63074 13.5384 9.38459 13.5384H2.92305C2.67689 13.5384 2.46151 13.323 2.46151 13.0768V6.61531C2.46151 6.36916 2.67689 6.15377 2.92305 6.15377H6.46151C6.70766 6.15377 6.95382 6.06146 7.10766 5.87685L8.15382 4.83069C8.33843 4.64608 8.21536 4.30762 7.93843 4.30762H1.84613C1.1692 4.30762 0.615356 4.86146 0.615356 5.53839V14.1538C0.615356 14.8307 1.1692 15.3845 1.84613 15.3845H10.4615C11.1384 15.3845 11.6923 14.8307 11.6923 14.1538V8.06146C11.6923 7.78454 11.3538 7.66146 11.1692 7.84608Z" fill="#0053B0"/>
</g>
<defs>
<clipPath id="clip0_897_37275">
<rect width="16" height="16" fill="white"/>
</clipPath>
</defs>
</svg>
