<svg width="24" height="25" viewBox="0 0 24 25" fill="none" xmlns="http://www.w3.org/2000/svg">
<path fill-rule="evenodd" clip-rule="evenodd" d="M11.9997 3.5C9.55517 3.5 9.24898 3.51006 8.2889 3.55407C7.33134 3.59745 6.67683 3.74961 6.10406 3.97281C5.51242 4.20229 5.01069 4.50975 4.51022 5.01022C4.00975 5.51069 3.70229 6.01305 3.47218 6.60468C3.24961 7.17683 3.09745 7.83071 3.05407 8.7889C3.01006 9.74898 3 10.0552 3 12.4997C3 14.9442 3.01006 15.2504 3.05407 16.2098C3.09745 17.1687 3.24961 17.8225 3.47218 18.3947C3.70229 18.9863 4.00975 19.4887 4.51022 19.9892C5.01069 20.489 5.51242 20.7971 6.10406 21.0272C6.67683 21.2491 7.33134 21.4013 8.2889 21.4459C9.24898 21.4893 9.55517 21.5 11.9997 21.5C14.4436 21.5 14.7504 21.4893 15.7105 21.4459C16.668 21.4013 17.3225 21.2491 17.8947 21.0272C18.487 20.7971 18.9887 20.489 19.4885 19.9892C19.989 19.4887 20.2971 18.9863 20.5272 18.3947C20.7491 17.8225 20.9013 17.1687 20.9453 16.2098C20.9893 15.2504 20.9994 14.9442 20.9994 12.4997C20.9994 10.0552 20.9893 9.74898 20.9453 8.7889C20.9013 7.83071 20.7491 7.17683 20.5272 6.60468C20.2971 6.01305 19.989 5.51069 19.4885 5.01022C18.9887 4.50975 18.487 4.20229 17.8947 3.97281C17.3225 3.74961 16.668 3.59745 15.7105 3.55407C14.7504 3.51006 14.4436 3.5 11.9997 3.5ZM11.9997 5.1215C14.4027 5.1215 14.6875 5.1303 15.6363 5.17369C16.5134 5.21393 16.9899 5.36042 17.3074 5.48365C17.7274 5.64712 18.0273 5.84203 18.3423 6.15703C18.6573 6.47202 18.8522 6.77193 19.0157 7.19192C19.139 7.50943 19.2854 7.98538 19.3257 8.86309C19.3684 9.81248 19.3779 10.0967 19.3779 12.4997C19.3779 14.9027 19.3684 15.1875 19.3257 16.1363C19.2854 17.014 19.139 17.4906 19.0157 17.8074C18.8522 18.2274 18.6573 18.5273 18.3423 18.8423C18.0273 19.1573 17.7274 19.3522 17.3074 19.5151C16.9899 19.6389 16.5134 19.7854 15.6363 19.8251C14.6875 19.8684 14.4027 19.8779 11.9997 19.8779C9.59604 19.8779 9.31185 19.8684 8.36309 19.8251C7.48538 19.7854 7.0088 19.6389 6.69192 19.5151C6.2713 19.3522 5.97202 19.1573 5.65703 18.8423C5.34203 18.5273 5.14712 18.2274 4.98365 17.8074C4.86042 17.4906 4.71393 17.014 4.67369 16.1363C4.63093 15.1875 4.6215 14.9027 4.6215 12.4997C4.6215 10.0967 4.63093 9.81248 4.67369 8.86309C4.71393 7.98538 4.86042 7.50943 4.98365 7.19192C5.14712 6.77193 5.34203 6.47202 5.65703 6.15703C5.97202 5.84203 6.2713 5.64712 6.69192 5.48365C7.0088 5.36042 7.48538 5.21393 8.36309 5.17369C9.31185 5.1303 9.59667 5.1215 11.9997 5.1215Z" fill="white"/>
<path fill-rule="evenodd" clip-rule="evenodd" d="M11.9997 15.4999C10.3424 15.4999 8.99943 14.1563 8.99943 12.4996C8.99943 10.8423 10.3424 9.49992 11.9997 9.49992C13.6565 9.49992 14.9994 10.8423 14.9994 12.4996C14.9994 14.1563 13.6565 15.4999 11.9997 15.4999ZM11.9997 7.87842C9.44772 7.87842 7.37793 9.94758 7.37793 12.4996C7.37793 15.0523 9.44772 17.1214 11.9997 17.1214C14.5518 17.1214 16.6209 15.0523 16.6209 12.4996C16.6209 9.94758 14.5518 7.87842 11.9997 7.87842Z" fill="white"/>
<path fill-rule="evenodd" clip-rule="evenodd" d="M17.884 7.69487C17.884 8.29217 17.4005 8.77567 16.8038 8.77567C16.2071 8.77567 15.7236 8.29217 15.7236 7.69487C15.7236 7.09883 16.2071 6.61597 16.8038 6.61597C17.4005 6.61597 17.884 7.09883 17.884 7.69487Z" fill="white"/>
</svg>
