<svg width="36" height="36" viewBox="0 0 36 36" fill="none" xmlns="http://www.w3.org/2000/svg">
<rect y="0.000976562" width="36" height="36" rx="4" fill="#133D6C" fill-opacity="0.05"/>
<path fill-rule="evenodd" clip-rule="evenodd" d="M16.6769 8.72751C17.7414 7.33783 20 8.07497 20 9.81206V26.1899C20 27.9365 17.7212 28.6675 16.6657 27.2595L13.071 22.465H10.7692C9.23983 22.465 8 21.2512 8 19.7537V16.1386C8 14.6411 9.23983 13.4272 10.7692 13.4272H13.0769L16.6769 8.72751ZM18.1538 9.81205L14.5538 14.5117C14.2052 14.9669 13.658 15.2348 13.0769 15.2348H10.7692C10.2594 15.2348 9.84615 15.6394 9.84615 16.1386V19.7537C9.84615 20.2529 10.2594 20.6575 10.7692 20.6575H13.071C13.6587 20.6575 14.2114 20.9315 14.5592 21.3954L18.1538 26.1899V9.81205Z" fill="#133D6C"/>
<path d="M22.0104 11.0449C21.9359 10.5028 22.2701 10.001 22.7119 10.001C23.0457 10.001 23.3322 10.2925 23.3905 10.7016C23.5888 12.0929 24 15.3029 24 18.001C24 20.699 23.5888 23.909 23.3905 25.3004C23.3322 25.7094 23.0457 26.001 22.7119 26.001C22.2701 26.001 21.9359 25.4992 22.0104 24.9571C22.2201 23.4297 22.5719 20.4964 22.5719 18.001C22.5719 15.5055 22.2201 12.5723 22.0104 11.0449Z" fill="#133D6C"/>
<path d="M26.792 12.001C26.2789 12.001 25.9033 12.5958 26.0221 13.159C26.2342 14.1645 26.4805 15.8049 26.4805 18.001C26.4805 20.1971 26.2342 21.8375 26.0221 22.843C25.9033 23.4061 26.2789 24.001 26.792 24.001C27.0667 24.001 27.3143 23.8247 27.3999 23.5303C27.6227 22.764 28 21.0209 28 18.001C28 14.981 27.6227 13.2379 27.3999 12.4717C27.3143 12.1772 27.0667 12.001 26.792 12.001Z" fill="#133D6C"/>
</svg>
