<svg width="250" height="45" viewBox="0 0 250 45" fill="none" xmlns="http://www.w3.org/2000/svg">
<path d="M40.625 6.74529L46.2542 18.7345L51.768 6.99137C52.2728 5.18357 53.9369 3.85693 55.912 3.85693H66.6643C69.0396 3.85693 70.9652 5.77572 70.9652 8.14265V38.1427C70.9652 40.5096 69.0396 42.4284 66.6643 42.4284C64.289 42.4284 62.3633 40.5096 62.3633 38.1427V12.4284H58.7119L50.4726 29.9765C49.6937 31.6354 47.9846 32.5644 46.2545 32.4351C44.5241 32.5646 42.8149 31.6356 42.036 29.9765L33.7966 12.4284H30.1064V38.1427C30.1064 40.5096 28.1808 42.4284 25.8055 42.4284C23.4302 42.4284 21.5046 40.5096 21.5046 38.1427V8.14265C21.5046 5.77572 23.4302 3.85693 25.8055 3.85693H36.5578C38.4421 3.85693 40.0435 5.06445 40.625 6.74529Z" fill="#EF383F"/>
<path d="M0 8.14265C0 5.77572 1.92562 3.85693 4.30092 3.85693H15.0532C17.4285 3.85693 19.3541 5.77572 19.3541 8.14265C19.3541 10.5096 17.4285 12.4284 15.0532 12.4284H4.30092C1.92562 12.4284 0 10.5096 0 8.14265Z" fill="#EF383F"/>
<path d="M73.1156 24.2141C73.1156 21.8471 75.0413 19.9284 77.4166 19.9284H81.3859L76.1676 10.167C75.0508 8.07797 75.8449 5.48235 77.9415 4.3695C80.0378 3.25667 82.6427 4.04805 83.7594 6.13705L99.7798 36.1045C100.897 38.1935 100.102 40.7891 98.0061 41.9019C95.9097 43.0147 93.3048 42.2234 92.188 40.1344L85.9681 28.4998H77.4166C75.0413 28.4998 73.1156 26.581 73.1156 24.2141Z" fill="#EF383F"/>
<path d="M114.829 10.98H124.649V12.38H114.829V10.98ZM120.589 6.28H122.089V22.72C122.089 23.62 121.849 24.06 121.289 24.32C120.709 24.58 119.789 24.62 118.269 24.62C118.189 24.22 117.969 23.56 117.729 23.16C118.849 23.18 119.849 23.18 120.149 23.16C120.489 23.16 120.589 23.06 120.589 22.72V6.28ZM120.349 11.56L121.549 11.92C120.229 15.74 117.889 19.44 115.409 21.42C115.149 21.08 114.709 20.58 114.369 20.32C116.809 18.6 119.149 15.02 120.349 11.56ZM108.529 20L109.969 20.36C109.369 21.98 108.349 23.6 107.309 24.64C107.049 24.38 106.429 23.94 106.089 23.74C107.129 22.82 108.029 21.4 108.529 20ZM111.389 20.56L112.589 19.98C113.429 20.98 114.369 22.3 114.769 23.2L113.489 23.86C113.089 22.96 112.189 21.56 111.389 20.56ZM108.589 11.96V14.54H112.709V11.96H108.589ZM108.589 15.7V18.32H112.709V15.7H108.589ZM108.589 8.22V10.78H112.709V8.22H108.589ZM107.149 6.98H114.189V19.56H107.149V6.98ZM134.089 16.66V18.02H144.169V16.66H134.089ZM134.089 19V20.4H144.169V19H134.089ZM134.089 14.32V15.68H144.169V14.32H134.089ZM132.629 13.32H145.669V21.4H132.629V13.32ZM140.929 22.34L141.929 21.5C144.109 22.16 146.449 23.04 147.869 23.68L146.529 24.54C145.249 23.9 143.089 23.04 140.929 22.34ZM135.989 21.52L137.349 22.16C135.729 23.12 133.189 24.04 131.189 24.58C130.949 24.3 130.429 23.72 130.089 23.46C132.149 23.02 134.549 22.32 135.989 21.52ZM138.289 7.56H146.529V8.74H138.289V7.56ZM138.609 6.16L139.949 6.46C139.409 8.1 138.449 9.72 137.409 10.74C137.169 10.52 136.609 10.16 136.269 9.98C137.309 9.02 138.149 7.6 138.609 6.16ZM140.989 8.3H142.369V8.98C142.369 10.5 141.729 12.3 136.089 13.18C135.949 12.82 135.549 12.3 135.289 12.02C140.489 11.34 140.989 9.96 140.989 8.94V8.3ZM142.169 9.48C143.189 10.78 145.469 11.62 148.249 11.86C147.949 12.16 147.569 12.7 147.389 13.08C144.509 12.66 142.209 11.52 141.109 9.74L142.169 9.48ZM130.429 7.4H135.249V8.58H130.429V7.4ZM129.989 10.52H135.749V11.74H129.989V10.52ZM146.029 7.56H146.289L146.509 7.5L147.529 7.84C147.029 8.86 146.389 10.02 145.829 10.74L144.649 10.32C145.109 9.66 145.669 8.64 146.029 7.78V7.56ZM161.769 10.04H163.329V24.58H161.769V10.04ZM153.629 9.14H171.649V10.6H153.629V9.14ZM155.589 13.34H168.729V14.8H157.089V22.28H155.589V13.34ZM168.309 13.34H169.849V20.38C169.849 21.26 169.669 21.72 168.989 21.96C168.309 22.2 167.169 22.22 165.469 22.22C165.389 21.76 165.149 21.16 164.949 20.74C166.309 20.78 167.509 20.78 167.869 20.78C168.229 20.74 168.309 20.66 168.309 20.38V13.34ZM160.889 6.5L162.349 6.06C162.909 6.98 163.609 8.26 163.909 9.04L162.369 9.58C162.089 8.78 161.449 7.46 160.889 6.5ZM182.829 14.42H195.429V15.74H182.829V14.42ZM185.089 17.14H193.809V18.36H185.089V17.14ZM186.069 14.92L187.369 15.26C186.349 17.48 184.529 19.44 182.669 20.68C182.469 20.42 181.949 19.96 181.649 19.74C183.489 18.64 185.149 16.9 186.069 14.92ZM193.529 17.14H194.949C194.949 17.14 194.929 17.52 194.889 17.74C194.589 21.88 194.269 23.46 193.729 24.04C193.409 24.38 193.049 24.5 192.569 24.54C192.129 24.56 191.369 24.58 190.569 24.54C190.569 24.16 190.429 23.62 190.229 23.3C190.989 23.36 191.649 23.38 191.929 23.38C192.229 23.38 192.389 23.36 192.549 23.16C192.929 22.78 193.249 21.28 193.529 17.36V17.14ZM186.169 10.58V12.18H192.609V10.58H186.169ZM186.169 7.92V9.5H192.609V7.92H186.169ZM184.809 6.8H194.009V13.3H184.809V6.8ZM177.269 10.54H183.209V11.98H177.269V10.54ZM179.609 6.36H181.029V18.66H179.609V6.36ZM176.889 19.46C178.429 18.82 180.789 17.76 183.069 16.7L183.389 18.02C181.349 19.06 179.169 20.14 177.469 20.96L176.889 19.46ZM190.969 17.36L192.029 17.92C191.269 20.46 189.609 23.3 187.789 24.68C187.529 24.38 187.069 24.04 186.689 23.82C188.569 22.56 190.249 19.84 190.969 17.36ZM187.849 17.42L188.869 18.02C187.849 20.2 185.749 22.58 183.809 23.82C183.569 23.5 183.149 23.12 182.789 22.9C184.769 21.82 186.869 19.52 187.849 17.42ZM212.029 17.54L213.449 16.9C215.089 19.04 217.009 21.88 217.969 23.66L216.469 24.48C215.549 22.64 213.609 19.68 212.029 17.54ZM206.149 6.8L207.789 7.3C206.349 10.6 204.129 13.82 201.889 15.88C201.609 15.56 200.949 14.94 200.549 14.66C202.809 12.8 204.909 9.84 206.149 6.8ZM203.069 23.64C202.969 23.3 202.689 22.46 202.469 22.02C203.009 21.88 203.589 21.22 204.349 20.28C205.169 19.36 207.769 15.76 209.449 12.34L211.129 13.06C209.129 16.64 206.709 20.22 204.289 22.72V22.76C204.289 22.76 203.069 23.26 203.069 23.64ZM203.069 23.64L203.029 22.36L204.129 21.76L215.929 21.08C216.009 21.52 216.169 22.16 216.269 22.5C204.989 23.26 203.849 23.32 203.069 23.64ZM212.109 6.7H213.889C214.849 9.9 216.869 12.92 219.229 14.48C218.869 14.78 218.329 15.42 218.049 15.88C215.629 14.06 213.569 10.86 212.509 7.6H212.109V6.7ZM209.009 6.7H213.389V8.24H209.009V6.7ZM227.969 12.98V16H238.809V12.98H227.969ZM226.689 11.96H240.169V17.02H226.689V11.96ZM229.969 9.86H236.949V10.92H229.969V9.86ZM232.729 12.32H233.989V16.5H232.729V12.32ZM229.189 13.58L230.269 13.22C230.789 13.92 231.269 14.86 231.469 15.5L230.309 15.92C230.149 15.28 229.689 14.3 229.189 13.58ZM236.389 13.14L237.669 13.54C237.229 14.4 236.709 15.32 236.309 15.92L235.269 15.56C235.649 14.88 236.149 13.82 236.389 13.14ZM227.869 17.98H239.169V24.52H237.649V19.04H229.349V24.6H227.869V17.98ZM228.749 20.38H238.309V21.48H228.749V20.38ZM228.749 22.84H238.309V23.92H228.749V22.84ZM233.269 6.12L234.609 6.62C232.489 9.38 228.729 11.3 225.029 12.5C224.869 12.2 224.449 11.58 224.169 11.32C227.829 10.32 231.409 8.56 233.269 6.12ZM234.149 6.82C235.989 8.74 239.609 10.42 242.849 11.18C242.529 11.44 242.109 11.98 241.889 12.34C238.649 11.46 235.009 9.54 232.989 7.32L234.149 6.82Z" fill="black"/>
<path d="M107.949 40.5713V34.0213H105.739V33.2413H111.099V34.0213H108.889V40.5713H107.949ZM111.788 40.5713V35.1413H112.528L112.618 36.1313H112.648C113.018 35.4413 113.578 35.0113 114.188 35.0113C114.428 35.0113 114.588 35.0413 114.768 35.1213L114.598 35.9213C114.408 35.8613 114.288 35.8313 114.068 35.8313C113.618 35.8313 113.058 36.1613 112.698 37.0913V40.5713H111.788ZM117.718 40.7113C116.268 40.7113 115.118 39.6513 115.118 37.8713C115.118 36.1013 116.308 35.0113 117.558 35.0113C118.938 35.0113 119.718 36.0013 119.718 37.5613C119.718 37.7513 119.708 37.9413 119.678 38.0813H116.018C116.088 39.2313 116.788 39.9813 117.828 39.9813C118.348 39.9813 118.778 39.8113 119.178 39.5413L119.508 40.1513C119.028 40.4613 118.458 40.7113 117.718 40.7113ZM116.008 37.4213H118.918C118.918 36.3313 118.428 35.7413 117.568 35.7413C116.808 35.7413 116.128 36.3513 116.008 37.4213ZM122.13 40.7113C121.22 40.7113 120.54 40.1413 120.54 39.1613C120.54 37.9813 121.56 37.3913 123.87 37.1313C123.87 36.4313 123.65 35.7613 122.76 35.7613C122.12 35.7613 121.55 36.0613 121.13 36.3513L120.77 35.7113C121.27 35.3913 122.03 35.0113 122.9 35.0113C124.23 35.0113 124.79 35.8913 124.79 37.2413V40.5713H124.04L123.96 39.9313H123.92C123.41 40.3613 122.8 40.7113 122.13 40.7113ZM122.38 39.9713C122.91 39.9713 123.35 39.7213 123.87 39.2513V37.7413C122.04 37.9513 121.43 38.4013 121.43 39.1013C121.43 39.7213 121.85 39.9713 122.38 39.9713ZM127.935 40.7113C127.165 40.7113 126.415 40.3813 125.905 39.9613L126.355 39.3513C126.825 39.7313 127.305 40.0013 127.955 40.0013C128.675 40.0013 129.035 39.6213 129.035 39.1413C129.035 38.5913 128.385 38.3413 127.785 38.1213C127.035 37.8313 126.205 37.4713 126.205 36.5413C126.205 35.6813 126.895 35.0113 128.075 35.0113C128.745 35.0113 129.345 35.2813 129.765 35.6213L129.325 36.2013C128.955 35.9313 128.565 35.7213 128.085 35.7213C127.395 35.7213 127.085 36.0813 127.085 36.5013C127.085 37.0213 127.635 37.2213 128.255 37.4413C129.045 37.7413 129.905 38.0613 129.905 39.0913C129.905 39.9813 129.215 40.7113 127.935 40.7113ZM132.772 40.7113C131.632 40.7113 131.112 39.9713 131.112 38.5813V35.1413H132.022V38.4713C132.022 39.4813 132.332 39.9113 133.052 39.9113C133.602 39.9113 134.002 39.6413 134.512 39.0013V35.1413H135.422V40.5713H134.672L134.592 39.7213H134.572C134.062 40.3113 133.522 40.7113 132.772 40.7113ZM137.267 40.5713V35.1413H138.007L138.097 36.1313H138.127C138.497 35.4413 139.057 35.0113 139.667 35.0113C139.907 35.0113 140.067 35.0413 140.247 35.1213L140.077 35.9213C139.887 35.8613 139.767 35.8313 139.547 35.8313C139.097 35.8313 138.537 36.1613 138.177 37.0913V40.5713H137.267ZM141.478 42.9213C141.228 42.9213 141.018 42.8813 140.848 42.8113L141.028 42.0813C141.128 42.1213 141.288 42.1613 141.438 42.1613C142.048 42.1613 142.438 41.6613 142.668 40.9913L142.788 40.5813L140.608 35.1413H141.548L142.658 38.1613C142.828 38.6413 143.008 39.1913 143.188 39.6913H143.238C143.388 39.1913 143.548 38.6513 143.688 38.1613L144.668 35.1413H145.558L143.508 41.0313C143.128 42.1013 142.568 42.9213 141.478 42.9213ZM148.929 40.5713V33.2413H150.039L151.449 37.1713C151.629 37.6713 151.799 38.1813 151.979 38.7013H152.019C152.199 38.1813 152.359 37.6713 152.529 37.1713L153.919 33.2413H155.039V40.5713H154.179V36.5213C154.179 35.8813 154.249 35.0013 154.299 34.3513H154.249L153.669 36.0213L152.279 39.8413H151.659L150.269 36.0213L149.689 34.3513H149.649C149.699 35.0013 149.769 35.8813 149.769 36.5213V40.5713H148.929ZM158.214 40.7113C157.304 40.7113 156.624 40.1413 156.624 39.1613C156.624 37.9813 157.644 37.3913 159.954 37.1313C159.954 36.4313 159.734 35.7613 158.844 35.7613C158.204 35.7613 157.634 36.0613 157.214 36.3513L156.854 35.7113C157.354 35.3913 158.114 35.0113 158.984 35.0113C160.314 35.0113 160.874 35.8913 160.874 37.2413V40.5713H160.124L160.044 39.9313H160.004C159.494 40.3613 158.884 40.7113 158.214 40.7113ZM158.464 39.9713C158.994 39.9713 159.434 39.7213 159.954 39.2513V37.7413C158.124 37.9513 157.514 38.4013 157.514 39.1013C157.514 39.7213 157.934 39.9713 158.464 39.9713ZM162.599 40.5713V35.1413H163.339L163.429 36.1313H163.459C163.829 35.4413 164.389 35.0113 164.999 35.0113C165.239 35.0113 165.399 35.0413 165.579 35.1213L165.409 35.9213C165.219 35.8613 165.099 35.8313 164.879 35.8313C164.429 35.8313 163.869 36.1613 163.509 37.0913V40.5713H162.599ZM166.476 40.5713V32.6213H167.376V38.0113H167.406L169.716 35.1413H170.736L168.926 37.3313L170.966 40.5713H169.976L168.386 37.9513L167.376 39.1413V40.5713H166.476ZM173.959 40.7113C172.509 40.7113 171.359 39.6513 171.359 37.8713C171.359 36.1013 172.549 35.0113 173.799 35.0113C175.179 35.0113 175.959 36.0013 175.959 37.5613C175.959 37.7513 175.949 37.9413 175.919 38.0813H172.259C172.329 39.2313 173.029 39.9813 174.069 39.9813C174.589 39.9813 175.019 39.8113 175.419 39.5413L175.749 40.1513C175.269 40.4613 174.699 40.7113 173.959 40.7113ZM172.249 37.4213H175.159C175.159 36.3313 174.669 35.7413 173.809 35.7413C173.049 35.7413 172.369 36.3513 172.249 37.4213ZM178.869 40.7113C177.709 40.7113 177.329 39.9813 177.329 38.9013V35.8813H176.519V35.2013L177.369 35.1413L177.469 33.6113H178.239V35.1413H179.709V35.8813H178.239V38.9213C178.239 39.5813 178.449 39.9713 179.079 39.9713C179.269 39.9713 179.519 39.8913 179.689 39.8213L179.869 40.5013C179.569 40.6113 179.209 40.7113 178.869 40.7113ZM182.222 40.7113C181.452 40.7113 180.702 40.3813 180.192 39.9613L180.642 39.3513C181.112 39.7313 181.592 40.0013 182.242 40.0013C182.962 40.0013 183.322 39.6213 183.322 39.1413C183.322 38.5913 182.672 38.3413 182.072 38.1213C181.322 37.8313 180.492 37.4713 180.492 36.5413C180.492 35.6813 181.182 35.0113 182.362 35.0113C183.032 35.0113 183.632 35.2813 184.052 35.6213L183.612 36.2013C183.242 35.9313 182.852 35.7213 182.372 35.7213C181.682 35.7213 181.372 36.0813 181.372 36.5013C181.372 37.0213 181.922 37.2213 182.542 37.4413C183.332 37.7413 184.192 38.0613 184.192 39.0913C184.192 39.9813 183.502 40.7113 182.222 40.7113ZM186.826 40.5713L189.306 33.2413H190.346L192.826 40.5713H191.856L190.566 36.4713C190.306 35.6513 190.076 34.8513 189.836 34.0013H189.796C189.556 34.8513 189.326 35.6513 189.056 36.4713L187.766 40.5713H186.826ZM188.126 38.3313V37.6013H191.506V38.3313H188.126ZM195.454 40.7113C194.684 40.7113 193.934 40.3813 193.424 39.9613L193.874 39.3513C194.344 39.7313 194.824 40.0013 195.474 40.0013C196.194 40.0013 196.554 39.6213 196.554 39.1413C196.554 38.5913 195.904 38.3413 195.304 38.1213C194.554 37.8313 193.724 37.4713 193.724 36.5413C193.724 35.6813 194.414 35.0113 195.594 35.0113C196.264 35.0113 196.864 35.2813 197.284 35.6213L196.844 36.2013C196.474 35.9313 196.084 35.7213 195.604 35.7213C194.914 35.7213 194.604 36.0813 194.604 36.5013C194.604 37.0213 195.154 37.2213 195.774 37.4413C196.564 37.7413 197.424 38.0613 197.424 39.0913C197.424 39.9813 196.734 40.7113 195.454 40.7113ZM200.132 40.7113C199.362 40.7113 198.612 40.3813 198.102 39.9613L198.552 39.3513C199.022 39.7313 199.502 40.0013 200.152 40.0013C200.872 40.0013 201.232 39.6213 201.232 39.1413C201.232 38.5913 200.582 38.3413 199.982 38.1213C199.232 37.8313 198.402 37.4713 198.402 36.5413C198.402 35.6813 199.092 35.0113 200.272 35.0113C200.942 35.0113 201.542 35.2813 201.962 35.6213L201.522 36.2013C201.152 35.9313 200.762 35.7213 200.282 35.7213C199.592 35.7213 199.282 36.0813 199.282 36.5013C199.282 37.0213 199.832 37.2213 200.452 37.4413C201.242 37.7413 202.102 38.0613 202.102 39.0913C202.102 39.9813 201.412 40.7113 200.132 40.7113ZM205.5 40.7113C204.16 40.7113 202.98 39.6613 202.98 37.8713C202.98 36.0513 204.16 35.0113 205.5 35.0113C206.83 35.0113 208.01 36.0513 208.01 37.8713C208.01 39.6613 206.83 40.7113 205.5 40.7113ZM205.5 39.9513C206.44 39.9513 207.07 39.1113 207.07 37.8713C207.07 36.6113 206.44 35.7713 205.5 35.7713C204.55 35.7713 203.92 36.6113 203.92 37.8713C203.92 39.1113 204.55 39.9513 205.5 39.9513ZM211.584 40.7113C210.144 40.7113 209.044 39.6613 209.044 37.8713C209.044 36.0513 210.264 35.0113 211.654 35.0113C212.364 35.0113 212.864 35.3013 213.244 35.6513L212.784 36.2513C212.464 35.9613 212.124 35.7713 211.704 35.7713C210.704 35.7713 209.984 36.6113 209.984 37.8713C209.984 39.1113 210.674 39.9513 211.674 39.9513C212.164 39.9513 212.614 39.7113 212.954 39.4113L213.344 40.0213C212.864 40.4513 212.234 40.7113 211.584 40.7113ZM214.552 40.5713V35.1413H215.462V40.5713H214.552ZM215.012 34.0213C214.652 34.0213 214.402 33.7913 214.402 33.4113C214.402 33.0613 214.652 32.8313 215.012 32.8313C215.362 32.8313 215.622 33.0613 215.622 33.4113C215.622 33.7913 215.362 34.0213 215.012 34.0213ZM218.556 40.7113C217.646 40.7113 216.966 40.1413 216.966 39.1613C216.966 37.9813 217.986 37.3913 220.296 37.1313C220.296 36.4313 220.076 35.7613 219.186 35.7613C218.546 35.7613 217.976 36.0613 217.556 36.3513L217.196 35.7113C217.696 35.3913 218.456 35.0113 219.326 35.0113C220.656 35.0113 221.216 35.8913 221.216 37.2413V40.5713H220.466L220.386 39.9313H220.346C219.836 40.3613 219.226 40.7113 218.556 40.7113ZM218.806 39.9713C219.336 39.9713 219.776 39.7213 220.296 39.2513V37.7413C218.466 37.9513 217.856 38.4013 217.856 39.1013C217.856 39.7213 218.276 39.9713 218.806 39.9713ZM224.465 40.7113C223.305 40.7113 222.925 39.9813 222.925 38.9013V35.8813H222.115V35.2013L222.965 35.1413L223.065 33.6113H223.835V35.1413H225.305V35.8813H223.835V38.9213C223.835 39.5813 224.045 39.9713 224.675 39.9713C224.865 39.9713 225.115 39.8913 225.285 39.8213L225.465 40.5013C225.165 40.6113 224.805 40.7113 224.465 40.7113ZM226.534 40.5713V35.1413H227.444V40.5713H226.534ZM226.994 34.0213C226.634 34.0213 226.384 33.7913 226.384 33.4113C226.384 33.0613 226.634 32.8313 226.994 32.8313C227.344 32.8313 227.604 33.0613 227.604 33.4113C227.604 33.7913 227.344 34.0213 226.994 34.0213ZM231.398 40.7113C230.058 40.7113 228.878 39.6613 228.878 37.8713C228.878 36.0513 230.058 35.0113 231.398 35.0113C232.728 35.0113 233.908 36.0513 233.908 37.8713C233.908 39.6613 232.728 40.7113 231.398 40.7113ZM231.398 39.9513C232.338 39.9513 232.968 39.1113 232.968 37.8713C232.968 36.6113 232.338 35.7713 231.398 35.7713C230.448 35.7713 229.818 36.6113 229.818 37.8713C229.818 39.1113 230.448 39.9513 231.398 39.9513ZM235.353 40.5713V35.1413H236.093L236.183 35.9313H236.213C236.723 35.4213 237.283 35.0113 238.033 35.0113C239.173 35.0113 239.693 35.7513 239.693 37.1313V40.5713H238.773V37.2513C238.773 36.2313 238.463 35.8013 237.743 35.8013C237.193 35.8013 236.803 36.0913 236.263 36.6313V40.5713H235.353Z" fill="black"/>
</svg>
