<svg width="250" height="45" viewBox="0 0 250 45" fill="none" xmlns="http://www.w3.org/2000/svg">
<path d="M40.625 6.74551L46.2542 18.7347L51.768 6.99159C52.2728 5.18378 53.9369 3.85715 55.912 3.85715H66.6643C69.0396 3.85715 70.9652 5.77593 70.9652 8.14286V38.1429C70.9652 40.5098 69.0396 42.4286 66.6643 42.4286C64.289 42.4286 62.3633 40.5098 62.3633 38.1429V12.4286H58.7119L50.4726 29.9767C49.6937 31.6357 47.9846 32.5647 46.2545 32.4353C44.5241 32.5648 42.8149 31.6358 42.036 29.9768L33.7966 12.4286H30.1064V38.1429C30.1064 40.5098 28.1808 42.4286 25.8055 42.4286C23.4302 42.4286 21.5046 40.5098 21.5046 38.1429V8.14286C21.5046 5.77593 23.4302 3.85715 25.8055 3.85715H36.5578C38.4421 3.85715 40.0435 5.06466 40.625 6.74551Z" fill="#EF383F"/>
<path d="M0 8.14286C0 5.77593 1.92562 3.85715 4.30092 3.85715H15.0532C17.4285 3.85715 19.3541 5.77593 19.3541 8.14286C19.3541 10.5098 17.4285 12.4286 15.0532 12.4286H4.30092C1.92562 12.4286 0 10.5098 0 8.14286Z" fill="#EF383F"/>
<path d="M73.1156 24.2143C73.1156 21.8474 75.0413 19.9286 77.4166 19.9286H81.3859L76.1676 10.1672C75.0508 8.07819 75.8449 5.48257 77.9415 4.36971C80.0378 3.25689 82.6427 4.04826 83.7594 6.13727L99.7798 36.1047C100.897 38.1937 100.102 40.7893 98.0061 41.9021C95.9097 43.0149 93.3048 42.2236 92.188 40.1346L85.9681 28.5H77.4166C75.0413 28.5 73.1156 26.5812 73.1156 24.2143Z" fill="#EF383F"/>
<path d="M120.828 10.98H130.648V12.38H120.828V10.98ZM126.588 6.28H128.088V22.72C128.088 23.62 127.848 24.06 127.288 24.32C126.708 24.58 125.788 24.62 124.268 24.62C124.188 24.22 123.968 23.56 123.728 23.16C124.848 23.18 125.848 23.18 126.148 23.16C126.488 23.16 126.588 23.06 126.588 22.72V6.28ZM126.348 11.56L127.548 11.92C126.228 15.74 123.888 19.44 121.408 21.42C121.148 21.08 120.708 20.58 120.368 20.32C122.808 18.6 125.148 15.02 126.348 11.56ZM114.528 20L115.968 20.36C115.368 21.98 114.348 23.6 113.308 24.64C113.048 24.38 112.428 23.94 112.088 23.74C113.128 22.82 114.028 21.4 114.528 20ZM117.388 20.56L118.588 19.98C119.428 20.98 120.368 22.3 120.768 23.2L119.488 23.86C119.088 22.96 118.188 21.56 117.388 20.56ZM114.588 11.96V14.54H118.708V11.96H114.588ZM114.588 15.7V18.32H118.708V15.7H114.588ZM114.588 8.22V10.78H118.708V8.22H114.588ZM113.148 6.98H120.188V19.56H113.148V6.98ZM140.088 16.66V18.02H150.168V16.66H140.088ZM140.088 19V20.4H150.168V19H140.088ZM140.088 14.32V15.68H150.168V14.32H140.088ZM138.628 13.32H151.668V21.4H138.628V13.32ZM146.928 22.34L147.928 21.5C150.108 22.16 152.448 23.04 153.868 23.68L152.528 24.54C151.248 23.9 149.088 23.04 146.928 22.34ZM141.988 21.52L143.348 22.16C141.728 23.12 139.188 24.04 137.188 24.58C136.948 24.3 136.428 23.72 136.088 23.46C138.148 23.02 140.548 22.32 141.988 21.52ZM144.288 7.56H152.528V8.74H144.288V7.56ZM144.608 6.16L145.948 6.46C145.408 8.1 144.448 9.72 143.408 10.74C143.168 10.52 142.608 10.16 142.268 9.98C143.308 9.02 144.148 7.6 144.608 6.16ZM146.988 8.3H148.368V8.98C148.368 10.5 147.728 12.3 142.088 13.18C141.948 12.82 141.548 12.3 141.288 12.02C146.488 11.34 146.988 9.96 146.988 8.94V8.3ZM148.168 9.48C149.188 10.78 151.468 11.62 154.248 11.86C153.948 12.16 153.568 12.7 153.388 13.08C150.508 12.66 148.208 11.52 147.108 9.74L148.168 9.48ZM136.428 7.4H141.248V8.58H136.428V7.4ZM135.988 10.52H141.748V11.74H135.988V10.52ZM152.028 7.56H152.288L152.508 7.5L153.528 7.84C153.028 8.86 152.388 10.02 151.828 10.74L150.648 10.32C151.108 9.66 151.668 8.64 152.028 7.78V7.56ZM167.768 10.04H169.328V24.58H167.768V10.04ZM159.628 9.14H177.648V10.6H159.628V9.14ZM161.588 13.34H174.728V14.8H163.088V22.28H161.588V13.34ZM174.308 13.34H175.848V20.38C175.848 21.26 175.668 21.72 174.988 21.96C174.308 22.2 173.168 22.22 171.468 22.22C171.388 21.76 171.148 21.16 170.948 20.74C172.308 20.78 173.508 20.78 173.868 20.78C174.228 20.74 174.308 20.66 174.308 20.38V13.34ZM166.888 6.5L168.348 6.06C168.908 6.98 169.608 8.26 169.908 9.04L168.368 9.58C168.088 8.78 167.448 7.46 166.888 6.5ZM188.828 14.42H201.428V15.74H188.828V14.42ZM191.088 17.14H199.808V18.36H191.088V17.14ZM192.068 14.92L193.368 15.26C192.348 17.48 190.528 19.44 188.668 20.68C188.468 20.42 187.948 19.96 187.648 19.74C189.488 18.64 191.148 16.9 192.068 14.92ZM199.528 17.14H200.948C200.948 17.14 200.928 17.52 200.888 17.74C200.588 21.88 200.268 23.46 199.728 24.04C199.408 24.38 199.048 24.5 198.568 24.54C198.128 24.56 197.368 24.58 196.568 24.54C196.568 24.16 196.428 23.62 196.228 23.3C196.988 23.36 197.648 23.38 197.928 23.38C198.228 23.38 198.388 23.36 198.548 23.16C198.928 22.78 199.248 21.28 199.528 17.36V17.14ZM192.168 10.58V12.18H198.608V10.58H192.168ZM192.168 7.92V9.5H198.608V7.92H192.168ZM190.808 6.8H200.008V13.3H190.808V6.8ZM183.268 10.54H189.208V11.98H183.268V10.54ZM185.608 6.36H187.028V18.66H185.608V6.36ZM182.888 19.46C184.428 18.82 186.788 17.76 189.068 16.7L189.388 18.02C187.348 19.06 185.168 20.14 183.468 20.96L182.888 19.46ZM196.968 17.36L198.028 17.92C197.268 20.46 195.608 23.3 193.788 24.68C193.528 24.38 193.068 24.04 192.688 23.82C194.568 22.56 196.248 19.84 196.968 17.36ZM193.848 17.42L194.868 18.02C193.848 20.2 191.748 22.58 189.808 23.82C189.568 23.5 189.148 23.12 188.788 22.9C190.768 21.82 192.868 19.52 193.848 17.42ZM218.028 17.54L219.448 16.9C221.088 19.04 223.008 21.88 223.968 23.66L222.468 24.48C221.548 22.64 219.608 19.68 218.028 17.54ZM212.148 6.8L213.788 7.3C212.348 10.6 210.128 13.82 207.888 15.88C207.608 15.56 206.948 14.94 206.548 14.66C208.808 12.8 210.908 9.84 212.148 6.8ZM209.068 23.64C208.968 23.3 208.688 22.46 208.468 22.02C209.008 21.88 209.588 21.22 210.348 20.28C211.168 19.36 213.768 15.76 215.448 12.34L217.128 13.06C215.128 16.64 212.708 20.22 210.288 22.72V22.76C210.288 22.76 209.068 23.26 209.068 23.64ZM209.068 23.64L209.028 22.36L210.128 21.76L221.928 21.08C222.008 21.52 222.168 22.16 222.268 22.5C210.988 23.26 209.848 23.32 209.068 23.64ZM218.108 6.7H219.888C220.848 9.9 222.868 12.92 225.228 14.48C224.868 14.78 224.328 15.42 224.048 15.88C221.628 14.06 219.568 10.86 218.508 7.6H218.108V6.7ZM215.008 6.7H219.388V8.24H215.008V6.7ZM233.968 12.98V16H244.808V12.98H233.968ZM232.688 11.96H246.168V17.02H232.688V11.96ZM235.968 9.86H242.948V10.92H235.968V9.86ZM238.728 12.32H239.988V16.5H238.728V12.32ZM235.188 13.58L236.268 13.22C236.788 13.92 237.268 14.86 237.468 15.5L236.308 15.92C236.148 15.28 235.688 14.3 235.188 13.58ZM242.388 13.14L243.668 13.54C243.228 14.4 242.708 15.32 242.308 15.92L241.268 15.56C241.648 14.88 242.148 13.82 242.388 13.14ZM233.868 17.98H245.168V24.52H243.648V19.04H235.348V24.6H233.868V17.98ZM234.748 20.38H244.308V21.48H234.748V20.38ZM234.748 22.84H244.308V23.92H234.748V22.84ZM239.268 6.12L240.608 6.62C238.488 9.38 234.728 11.3 231.028 12.5C230.868 12.2 230.448 11.58 230.168 11.32C233.828 10.32 237.408 8.56 239.268 6.12ZM240.148 6.82C241.988 8.74 245.608 10.42 248.848 11.18C248.528 11.44 248.108 11.98 247.888 12.34C244.648 11.46 241.008 9.54 238.988 7.32L240.148 6.82Z" fill="black"/>
<path d="M113.948 40.5713V34.0213H111.738V33.2413H117.098V34.0213H114.888V40.5713H113.948ZM117.788 40.5713V35.1413H118.528L118.618 36.1313H118.648C119.018 35.4413 119.578 35.0113 120.188 35.0113C120.428 35.0113 120.588 35.0413 120.768 35.1213L120.598 35.9213C120.408 35.8613 120.288 35.8313 120.068 35.8313C119.618 35.8313 119.058 36.1613 118.698 37.0913V40.5713H117.788ZM123.718 40.7113C122.268 40.7113 121.118 39.6513 121.118 37.8713C121.118 36.1013 122.308 35.0113 123.558 35.0113C124.938 35.0113 125.718 36.0013 125.718 37.5613C125.718 37.7513 125.708 37.9413 125.678 38.0813H122.018C122.088 39.2313 122.788 39.9813 123.828 39.9813C124.348 39.9813 124.778 39.8113 125.178 39.5413L125.508 40.1513C125.028 40.4613 124.458 40.7113 123.718 40.7113ZM122.008 37.4213H124.918C124.918 36.3313 124.428 35.7413 123.568 35.7413C122.808 35.7413 122.128 36.3513 122.008 37.4213ZM128.13 40.7113C127.22 40.7113 126.54 40.1413 126.54 39.1613C126.54 37.9813 127.56 37.3913 129.87 37.1313C129.87 36.4313 129.65 35.7613 128.76 35.7613C128.12 35.7613 127.55 36.0613 127.13 36.3513L126.77 35.7113C127.27 35.3913 128.03 35.0113 128.9 35.0113C130.23 35.0113 130.79 35.8913 130.79 37.2413V40.5713H130.04L129.96 39.9313H129.92C129.41 40.3613 128.8 40.7113 128.13 40.7113ZM128.38 39.9713C128.91 39.9713 129.35 39.7213 129.87 39.2513V37.7413C128.04 37.9513 127.43 38.4013 127.43 39.1013C127.43 39.7213 127.85 39.9713 128.38 39.9713ZM133.934 40.7113C133.164 40.7113 132.414 40.3813 131.904 39.9613L132.354 39.3513C132.824 39.7313 133.304 40.0013 133.954 40.0013C134.674 40.0013 135.034 39.6213 135.034 39.1413C135.034 38.5913 134.384 38.3413 133.784 38.1213C133.034 37.8313 132.204 37.4713 132.204 36.5413C132.204 35.6813 132.894 35.0113 134.074 35.0113C134.744 35.0113 135.344 35.2813 135.764 35.6213L135.324 36.2013C134.954 35.9313 134.564 35.7213 134.084 35.7213C133.394 35.7213 133.084 36.0813 133.084 36.5013C133.084 37.0213 133.634 37.2213 134.254 37.4413C135.044 37.7413 135.904 38.0613 135.904 39.0913C135.904 39.9813 135.214 40.7113 133.934 40.7113ZM138.772 40.7113C137.632 40.7113 137.112 39.9713 137.112 38.5813V35.1413H138.022V38.4713C138.022 39.4813 138.332 39.9113 139.052 39.9113C139.602 39.9113 140.002 39.6413 140.512 39.0013V35.1413H141.422V40.5713H140.672L140.592 39.7213H140.572C140.062 40.3113 139.522 40.7113 138.772 40.7113ZM143.266 40.5713V35.1413H144.006L144.096 36.1313H144.126C144.496 35.4413 145.056 35.0113 145.666 35.0113C145.906 35.0113 146.066 35.0413 146.246 35.1213L146.076 35.9213C145.886 35.8613 145.766 35.8313 145.546 35.8313C145.096 35.8313 144.536 36.1613 144.176 37.0913V40.5713H143.266ZM147.477 42.9213C147.227 42.9213 147.017 42.8813 146.847 42.8113L147.027 42.0813C147.127 42.1213 147.287 42.1613 147.437 42.1613C148.047 42.1613 148.437 41.6613 148.667 40.9913L148.787 40.5813L146.607 35.1413H147.547L148.657 38.1613C148.827 38.6413 149.007 39.1913 149.187 39.6913H149.237C149.387 39.1913 149.547 38.6513 149.687 38.1613L150.667 35.1413H151.557L149.507 41.0313C149.127 42.1013 148.567 42.9213 147.477 42.9213ZM154.928 40.5713V33.2413H156.038L157.448 37.1713C157.628 37.6713 157.798 38.1813 157.978 38.7013H158.018C158.198 38.1813 158.358 37.6713 158.528 37.1713L159.918 33.2413H161.038V40.5713H160.178V36.5213C160.178 35.8813 160.248 35.0013 160.298 34.3513H160.248L159.668 36.0213L158.278 39.8413H157.658L156.268 36.0213L155.688 34.3513H155.648C155.698 35.0013 155.768 35.8813 155.768 36.5213V40.5713H154.928ZM164.214 40.7113C163.304 40.7113 162.624 40.1413 162.624 39.1613C162.624 37.9813 163.644 37.3913 165.954 37.1313C165.954 36.4313 165.734 35.7613 164.844 35.7613C164.204 35.7613 163.634 36.0613 163.214 36.3513L162.854 35.7113C163.354 35.3913 164.114 35.0113 164.984 35.0113C166.314 35.0113 166.874 35.8913 166.874 37.2413V40.5713H166.124L166.044 39.9313H166.004C165.494 40.3613 164.884 40.7113 164.214 40.7113ZM164.464 39.9713C164.994 39.9713 165.434 39.7213 165.954 39.2513V37.7413C164.124 37.9513 163.514 38.4013 163.514 39.1013C163.514 39.7213 163.934 39.9713 164.464 39.9713ZM168.598 40.5713V35.1413H169.338L169.428 36.1313H169.458C169.828 35.4413 170.388 35.0113 170.998 35.0113C171.238 35.0113 171.398 35.0413 171.578 35.1213L171.408 35.9213C171.218 35.8613 171.098 35.8313 170.878 35.8313C170.428 35.8313 169.868 36.1613 169.508 37.0913V40.5713H168.598ZM172.475 40.5713V32.6213H173.375V38.0113H173.405L175.715 35.1413H176.735L174.925 37.3313L176.965 40.5713H175.975L174.385 37.9513L173.375 39.1413V40.5713H172.475ZM179.958 40.7113C178.508 40.7113 177.358 39.6513 177.358 37.8713C177.358 36.1013 178.548 35.0113 179.798 35.0113C181.178 35.0113 181.958 36.0013 181.958 37.5613C181.958 37.7513 181.948 37.9413 181.918 38.0813H178.258C178.328 39.2313 179.028 39.9813 180.068 39.9813C180.588 39.9813 181.018 39.8113 181.418 39.5413L181.748 40.1513C181.268 40.4613 180.698 40.7113 179.958 40.7113ZM178.248 37.4213H181.158C181.158 36.3313 180.668 35.7413 179.808 35.7413C179.048 35.7413 178.368 36.3513 178.248 37.4213ZM184.869 40.7113C183.709 40.7113 183.329 39.9813 183.329 38.9013V35.8813H182.519V35.2013L183.369 35.1413L183.469 33.6113H184.239V35.1413H185.709V35.8813H184.239V38.9213C184.239 39.5813 184.449 39.9713 185.079 39.9713C185.269 39.9713 185.519 39.8913 185.689 39.8213L185.869 40.5013C185.569 40.6113 185.209 40.7113 184.869 40.7113ZM188.222 40.7113C187.452 40.7113 186.702 40.3813 186.192 39.9613L186.642 39.3513C187.112 39.7313 187.592 40.0013 188.242 40.0013C188.962 40.0013 189.322 39.6213 189.322 39.1413C189.322 38.5913 188.672 38.3413 188.072 38.1213C187.322 37.8313 186.492 37.4713 186.492 36.5413C186.492 35.6813 187.182 35.0113 188.362 35.0113C189.032 35.0113 189.632 35.2813 190.052 35.6213L189.612 36.2013C189.242 35.9313 188.852 35.7213 188.372 35.7213C187.682 35.7213 187.372 36.0813 187.372 36.5013C187.372 37.0213 187.922 37.2213 188.542 37.4413C189.332 37.7413 190.192 38.0613 190.192 39.0913C190.192 39.9813 189.502 40.7113 188.222 40.7113ZM192.826 40.5713L195.306 33.2413H196.346L198.826 40.5713H197.856L196.566 36.4713C196.306 35.6513 196.076 34.8513 195.836 34.0013H195.796C195.556 34.8513 195.326 35.6513 195.056 36.4713L193.766 40.5713H192.826ZM194.126 38.3313V37.6013H197.506V38.3313H194.126ZM201.454 40.7113C200.684 40.7113 199.934 40.3813 199.424 39.9613L199.874 39.3513C200.344 39.7313 200.824 40.0013 201.474 40.0013C202.194 40.0013 202.554 39.6213 202.554 39.1413C202.554 38.5913 201.904 38.3413 201.304 38.1213C200.554 37.8313 199.724 37.4713 199.724 36.5413C199.724 35.6813 200.414 35.0113 201.594 35.0113C202.264 35.0113 202.864 35.2813 203.284 35.6213L202.844 36.2013C202.474 35.9313 202.084 35.7213 201.604 35.7213C200.914 35.7213 200.604 36.0813 200.604 36.5013C200.604 37.0213 201.154 37.2213 201.774 37.4413C202.564 37.7413 203.424 38.0613 203.424 39.0913C203.424 39.9813 202.734 40.7113 201.454 40.7113ZM206.132 40.7113C205.362 40.7113 204.612 40.3813 204.102 39.9613L204.552 39.3513C205.022 39.7313 205.502 40.0013 206.152 40.0013C206.872 40.0013 207.232 39.6213 207.232 39.1413C207.232 38.5913 206.582 38.3413 205.982 38.1213C205.232 37.8313 204.402 37.4713 204.402 36.5413C204.402 35.6813 205.092 35.0113 206.272 35.0113C206.942 35.0113 207.542 35.2813 207.962 35.6213L207.522 36.2013C207.152 35.9313 206.762 35.7213 206.282 35.7213C205.592 35.7213 205.282 36.0813 205.282 36.5013C205.282 37.0213 205.832 37.2213 206.452 37.4413C207.242 37.7413 208.102 38.0613 208.102 39.0913C208.102 39.9813 207.412 40.7113 206.132 40.7113ZM211.499 40.7113C210.159 40.7113 208.979 39.6613 208.979 37.8713C208.979 36.0513 210.159 35.0113 211.499 35.0113C212.829 35.0113 214.009 36.0513 214.009 37.8713C214.009 39.6613 212.829 40.7113 211.499 40.7113ZM211.499 39.9513C212.439 39.9513 213.069 39.1113 213.069 37.8713C213.069 36.6113 212.439 35.7713 211.499 35.7713C210.549 35.7713 209.919 36.6113 209.919 37.8713C209.919 39.1113 210.549 39.9513 211.499 39.9513ZM217.584 40.7113C216.144 40.7113 215.044 39.6613 215.044 37.8713C215.044 36.0513 216.264 35.0113 217.654 35.0113C218.364 35.0113 218.864 35.3013 219.244 35.6513L218.784 36.2513C218.464 35.9613 218.124 35.7713 217.704 35.7713C216.704 35.7713 215.984 36.6113 215.984 37.8713C215.984 39.1113 216.674 39.9513 217.674 39.9513C218.164 39.9513 218.614 39.7113 218.954 39.4113L219.344 40.0213C218.864 40.4513 218.234 40.7113 217.584 40.7113ZM220.552 40.5713V35.1413H221.462V40.5713H220.552ZM221.012 34.0213C220.652 34.0213 220.402 33.7913 220.402 33.4113C220.402 33.0613 220.652 32.8313 221.012 32.8313C221.362 32.8313 221.622 33.0613 221.622 33.4113C221.622 33.7913 221.362 34.0213 221.012 34.0213ZM224.555 40.7113C223.645 40.7113 222.965 40.1413 222.965 39.1613C222.965 37.9813 223.985 37.3913 226.295 37.1313C226.295 36.4313 226.075 35.7613 225.185 35.7613C224.545 35.7613 223.975 36.0613 223.555 36.3513L223.195 35.7113C223.695 35.3913 224.455 35.0113 225.325 35.0113C226.655 35.0113 227.215 35.8913 227.215 37.2413V40.5713H226.465L226.385 39.9313H226.345C225.835 40.3613 225.225 40.7113 224.555 40.7113ZM224.805 39.9713C225.335 39.9713 225.775 39.7213 226.295 39.2513V37.7413C224.465 37.9513 223.855 38.4013 223.855 39.1013C223.855 39.7213 224.275 39.9713 224.805 39.9713ZM230.464 40.7113C229.304 40.7113 228.924 39.9813 228.924 38.9013V35.8813H228.114V35.2013L228.964 35.1413L229.064 33.6113H229.834V35.1413H231.304V35.8813H229.834V38.9213C229.834 39.5813 230.044 39.9713 230.674 39.9713C230.864 39.9713 231.114 39.8913 231.284 39.8213L231.464 40.5013C231.164 40.6113 230.804 40.7113 230.464 40.7113ZM232.534 40.5713V35.1413H233.444V40.5713H232.534ZM232.994 34.0213C232.634 34.0213 232.384 33.7913 232.384 33.4113C232.384 33.0613 232.634 32.8313 232.994 32.8313C233.344 32.8313 233.604 33.0613 233.604 33.4113C233.604 33.7913 233.344 34.0213 232.994 34.0213ZM237.398 40.7113C236.058 40.7113 234.878 39.6613 234.878 37.8713C234.878 36.0513 236.058 35.0113 237.398 35.0113C238.728 35.0113 239.908 36.0513 239.908 37.8713C239.908 39.6613 238.728 40.7113 237.398 40.7113ZM237.398 39.9513C238.338 39.9513 238.968 39.1113 238.968 37.8713C238.968 36.6113 238.338 35.7713 237.398 35.7713C236.448 35.7713 235.818 36.6113 235.818 37.8713C235.818 39.1113 236.448 39.9513 237.398 39.9513ZM241.352 40.5713V35.1413H242.092L242.182 35.9313H242.212C242.722 35.4213 243.282 35.0113 244.032 35.0113C245.172 35.0113 245.692 35.7513 245.692 37.1313V40.5713H244.772V37.2513C244.772 36.2313 244.462 35.8013 243.742 35.8013C243.192 35.8013 242.802 36.0913 242.262 36.6313V40.5713H241.352Z" fill="black"/>
<rect x="105" y="5" width="1" height="35" fill="#9E9E9E"/>
</svg>
